{"title":"Doctor Who 2005 8x05 Time Heist 720p HDTV x265","uid":11072275,"size":348558417,"categoryP":"video","categoryS":"hd___tv_shows","magnet":"?xt=urn:btih:2ec5061949e931a051a22c1750b96fa0e5b46f82&amp;dn=Doctor+Who+2005+8x05+Time+Heist+720p+HDTV+x265&amp;tr=udp%3A%2F%2Ftracker.openbittorrent.com%3A80&amp;tr=udp%3A%2F%2Fopen.demonii.com%3A1337&amp;tr=udp%3A%2F%2Ftracker.coppersurfer.tk%3A6969&amp;tr=udp%3A%2F%2Fexodus.desync.com%3A6969","seeders":1,"leechers":0,"uploader":"atm50","files":-1,"time":1411292546,"description":"The Doctor and Clara must break into the most secure bank in the universe.\n\nSource: Doctor Who 2005 8x05 Time Heist 720p HDTV x264-FoV [eztv]\n\nFormat                         : MPEG-4\nFile size                      : 332 MiB\nDuration                       : 44mn 55s\nOverall bit rate               : 1 034 Kbps\n\nVideo\n\nFormat                         : HEVC [X265]\nBit rate                       : 776 Kbps\nMaximum bit rate               : 8 346 Kbps\nWidth                          : 1 280 pixels\nHeight                         : 720 pixels\nDisplay aspect ratio           : 16:9\nFrame rate                     : 25.000 fps\nStream size                    : 249 MiB (75%)\n\nAudio\n\nFormat                         : AC-3\nBit rate                       : 256 Kbps\nChannel(s)                     : 6 channels (5.1)\nSampling rate                  : 48.0 KHz\nBit depth                      : 16 bits\nCompression mode               : Lossy\nStream size                    : 82.3 MiB (25%)\n\nSubtitles: English (External)","torrent":{"xt":"urn:btih:2ec5061949e931a051a22c1750b96fa0e5b46f82","amp;dn":"Doctor+Who+2005+8x05+Time+Heist+720p+HDTV+x265","amp;tr":["udp%3A%2F%2Ftracker.openbittorrent.com%3A80","udp%3A%2F%2Fopen.demonii.com%3A1337","udp%3A%2F%2Ftracker.coppersurfer.tk%3A6969","udp%3A%2F%2Fexodus.desync.com%3A6969"],"infoHash":"2ec5061949e931a051a22c1750b96fa0e5b46f82","infoHashBuffer":{"type":"Buffer","data":[46,197,6,25,73,233,49,160,81,162,44,23,80,185,111,160,229,180,111,130]},"announce":[],"urlList":[]}}